<mxfile host="app.diagrams.net" agent="Mozilla/5.0 (Macintosh; Intel Mac OS X 10_15_7) AppleWebKit/605.1.15 (KHTML, like Gecko) Version/18.4 Safari/605.1.15" version="26.2.13">
  <diagram name="Page-1" id="c4acf3e9-155e-7222-9cf6-157b1a14988f">
    <mxGraphModel dx="2039" dy="1220" grid="1" gridSize="10" guides="1" tooltips="1" connect="1" arrows="1" fold="1" page="1" pageScale="1" pageWidth="850" pageHeight="1100" background="none" math="0" shadow="0">
      <root>
        <mxCell id="0" />
        <mxCell id="1" parent="0" />
        <mxCell id="nvWvCTovMM-wUQot8QWP-6" value="User&#xa;- id: Long&#xa;- name: String&#xa;- email: String&#xa;- password: String&#xa;- role: Role" style="shape=umlClass;html=1;" vertex="1" parent="1">
          <mxGeometry x="100" y="100" width="200" height="150" as="geometry" />
        </mxCell>
        <mxCell id="nvWvCTovMM-wUQot8QWP-7" value="Role (Enum)&#xa;+ ADMIN&#xa;+ USER" style="shape=umlClass;html=1;" vertex="1" parent="1">
          <mxGeometry x="400" y="100" width="160" height="100" as="geometry" />
        </mxCell>
        <mxCell id="nvWvCTovMM-wUQot8QWP-8" value="UserBean&#xa;+ login(): void&#xa;+ logout(): void&#xa;+ getCurrentUser(): User&#xa;+ isAdmin(): boolean&#xa;+ createUser(): void&#xa;+ updateUser(): void&#xa;+ deleteUser(): void&#xa;+ listUsers(): List&lt;User&gt;" style="shape=umlClass;html=1;" vertex="1" parent="1">
          <mxGeometry x="100" y="300" width="250" height="180" as="geometry" />
        </mxCell>
        <mxCell id="nvWvCTovMM-wUQot8QWP-9" style="endArrow=block;html=1;" edge="1" parent="1" source="nvWvCTovMM-wUQot8QWP-6" target="nvWvCTovMM-wUQot8QWP-7">
          <mxGeometry relative="1" as="geometry" />
        </mxCell>
        <mxCell id="nvWvCTovMM-wUQot8QWP-10" style="endArrow=block;html=1;" edge="1" parent="1" source="nvWvCTovMM-wUQot8QWP-8" target="nvWvCTovMM-wUQot8QWP-6">
          <mxGeometry relative="1" as="geometry" />
        </mxCell>
      </root>
    </mxGraphModel>
  </diagram>
</mxfile>
